<svg width="930" height="922" viewBox="0 0 930 922" fill="none" xmlns="http://www.w3.org/2000/svg">
<path fill-rule="evenodd" clip-rule="evenodd" d="M451.257 808.408C364.664 882.734 281 979.869 281 1157.54V1298.09H0V1157.54C0 894.331 109.826 740.337 234.461 625.256C123.654 512.641 32.3733 362.533 32.3733 122.182V37.8514H200.974V122.182C200.974 311.98 275.926 428.914 364.873 516.981C368.697 513.907 372.642 510.737 376.715 507.467C488.578 417.605 648.378 323.707 648.378 76.551V-63.9995H929.374V76.551C929.374 417.137 744.575 573.079 585.726 700.189C743.219 826.718 917.855 985.495 917.855 1317.39V1401.72H749.255V1317.39C749.255 1035.3 584.613 912.856 451.257 808.408Z" fill="#FAF9FA"/>
</svg>
