<svg width="1026" height="528" viewBox="0 0 1026 528" fill="none" xmlns="http://www.w3.org/2000/svg">
<path d="M7.9446 4.52852L-11 9V513.874V516.235L-9.94461 518.346L-7.38227 523.471L11.5623 519V61.9474L243.738 523.494L262.672 519V61.945L492.274 518.346L492.286 518.368L494.837 523.471L513.781 519V61.9474L745.957 523.494L764.891 519V61.9475L997.067 523.494L1016 519V513.874V511.503L1014.94 509.385L763.826 9.61099L763.822 9.60252L763.818 9.59407L762.554 7.09129L762.536 7.05628L761.273 4.52847L742.328 9V466.599L512.717 9.61099L512.712 9.60248L512.708 9.59398L511.445 7.09137L511.427 7.0562L510.163 4.52856L491.219 9V466.599L261.607 9.61099L261.603 9.60246L261.599 9.59394L260.335 7.09137L260.318 7.05615L259.054 4.52856L240.109 9V466.599L10.4979 9.61099L10.4936 9.60247L10.4893 9.59395L9.217 7.07379L7.9446 4.52852Z" fill="#FAF9FA" stroke="#FAF9FA" stroke-width="20"/>
</svg>
